<svg width="48" height="47" viewBox="0 0 48 47" fill="none" xmlns="http://www.w3.org/2000/svg">
<path d="M39.5005 17.4002C40.8613 13.2107 41.1173 9.39068 40.1899 6.49629C40.1812 6.4698 40.1722 6.44253 40.1633 6.41564C40.1077 6.25859 39.9693 5.92661 39.7939 5.92661C39.6607 5.92661 39.6588 6.14881 39.6665 6.26177C39.6692 6.28349 39.6719 6.30494 39.6745 6.32679C39.9701 8.91102 39.1795 12.5987 37.5904 16.4595C34.3312 14.9797 30.4167 13.7978 26.0749 13.1009C22.1723 12.4741 18.4365 12.3357 15.0483 12.6124C15.4512 9.94708 16.4464 8.09343 18.0794 7.70239C20.3271 7.16423 22.7788 8.64261 25.1164 11.3332C25.5204 11.3884 25.9251 11.4484 26.3304 11.5132C27.4839 11.6986 28.6161 11.9184 29.727 12.1726C25.465 4.15573 19.7482 -0.33734 15.4005 1.32124C12.092 2.58243 10.4017 7.13457 10.6031 13.2524C6.29448 14.1688 2.85827 15.8572 0.815398 18.1075C0.796332 18.1285 0.777663 18.1497 0.758851 18.1707C0.650667 18.2975 0.432308 18.5832 0.520496 18.7352C0.58671 18.8505 0.780439 18.7411 0.874456 18.678C0.891808 18.6647 0.909017 18.6516 0.926635 18.6383C3.01692 17.0901 6.60581 15.9309 10.7437 15.3767C11.0918 18.9389 12.0262 22.9198 13.5931 27.0287C15.0014 30.7219 16.7494 34.0265 18.6833 36.8224C16.1734 37.806 14.0707 37.8708 12.9156 36.6523C11.3255 34.9749 11.3795 32.1127 12.5413 28.7426C12.3872 28.3653 12.2368 27.9848 12.0902 27.6013C11.6739 26.5097 11.2982 25.4195 10.963 24.3304C6.15014 32.0298 5.11738 39.2274 8.72721 42.1637C11.4742 44.3982 16.2621 43.5859 21.4597 40.353C24.4075 43.6262 27.5878 45.7579 30.558 46.4019C30.5857 46.4079 30.6133 46.4134 30.6412 46.4193C30.805 46.4496 31.1615 46.4958 31.2494 46.3437C31.3156 46.2283 31.1245 46.1156 31.0227 46.0657C31.0026 46.0572 30.983 46.0489 30.9626 46.0401C28.5766 45.004 25.7782 42.4755 23.2291 39.1691C26.1402 37.0864 29.1204 34.287 31.8955 30.8756C34.3897 27.8092 36.3774 24.6431 37.8318 21.5704C39.9386 23.2521 41.0462 25.0408 40.5684 26.6505C39.9108 28.8661 37.405 30.2505 33.9056 30.9294C33.6559 31.2516 33.4015 31.572 33.1427 31.8907C32.4055 32.797 31.649 33.6676 30.8733 34.5025C39.9472 34.8204 46.6966 32.1157 47.4346 27.5213C47.9967 24.0254 44.8995 20.2854 39.5005 17.4002ZM31.6191 26.5638C28.4192 30.4976 24.4304 33.8469 20.8834 35.7833C19.5497 33.6402 18.3683 31.3158 17.4642 28.9452C15.6573 24.2072 14.751 19.0779 14.8478 15.0381C17.3703 14.9547 19.9742 15.0936 22.4792 15.4961C27.4858 16.3002 32.381 18.0799 35.8312 20.1838C34.642 22.4103 33.2207 24.5955 31.6191 26.5638Z" fill="white"/>
</svg>
