<svg width="37" height="47" viewBox="0 0 37 47" fill="none" xmlns="http://www.w3.org/2000/svg">
<path d="M13.586 31.9608L13.5641 31.8951L13.5203 31.8273L13.4962 31.7594L13.4743 31.7156L13.4525 31.6478L13.4306 31.558L13.4065 31.5121L13.3627 31.4464L13.3408 31.3786L13.3167 31.3107L13.2949 31.2451L13.2511 31.1093L13.2051 31.0415L13.1832 30.9758L13.1395 30.8401L13.1154 30.7745L13.0935 30.7066L13.0497 30.6388L13.0256 30.5709L13.0037 30.5052L12.9819 30.5709L12.96 30.6388L12.9359 30.7066L12.8921 30.7745L12.8702 30.8401L12.8462 30.908L12.8243 30.9758L12.7805 31.0415V31.1093L12.7345 31.1772L12.7126 31.2451L12.6908 31.3107L12.6689 31.3786L12.6448 31.4464L12.6229 31.5121L12.5791 31.558L12.555 31.6478L12.5332 31.7156L12.5113 31.7594L12.4894 31.8273L12.4434 31.917L12.4215 31.9608L12.3996 32.0286H13.61L13.586 31.9608ZM13.586 31.9608L13.5641 31.8951L13.5203 31.8273L13.4962 31.7594L13.4743 31.7156L13.4525 31.6478L13.4306 31.558L13.4065 31.5121L13.3627 31.4464L13.3408 31.3786L13.3167 31.3107L13.2949 31.2451L13.2511 31.1093L13.2051 31.0415L13.1832 30.9758L13.1395 30.8401L13.1154 30.7745L13.0935 30.7066L13.0497 30.6388L13.0256 30.5709L13.0037 30.5052L12.9819 30.5709L12.96 30.6388L12.9359 30.7066L12.8921 30.7745L12.8702 30.8401L12.8462 30.908L12.8243 30.9758L12.7805 31.0415V31.1093L12.7345 31.1772L12.7126 31.2451L12.6908 31.3107L12.6689 31.3786L12.6448 31.4464L12.6229 31.5121L12.5791 31.558L12.555 31.6478L12.5332 31.7156L12.5113 31.7594L12.4894 31.8273L12.4434 31.917L12.4215 31.9608L12.3996 32.0286H13.61L13.586 31.9608ZM14.8642 8.56257H13.9909V14.6124H14.8642C15.3348 14.6124 15.7157 14.2315 15.7157 13.7391V9.4359C15.7157 8.94342 15.3348 8.56257 14.8642 8.56257ZM14.8642 8.56257H13.9909V14.6124H14.8642C15.3348 14.6124 15.7157 14.2315 15.7157 13.7391V9.4359C15.7157 8.94342 15.3348 8.56257 14.8642 8.56257ZM0.385344 0V38.6191L18.316 47L36.2466 38.6191V0H0.385344ZM20.0407 5.98417H22.641V22.3695H20.0407V5.98417ZM18.3597 29.6297L18.4057 29.6976L18.4495 29.7413L18.4735 29.8092L18.5173 29.8771L18.5633 29.9208L18.5852 29.9887L18.629 30.0565L18.6749 30.1244L18.6968 30.1682L18.7428 30.236L18.7865 30.3017L18.8084 30.3476L18.8544 30.4155L18.8763 30.4812L18.9201 30.5271L18.966 30.595L19.0098 30.6606L19.0339 30.7066L19.0777 30.7745L19.1236 30.8401L19.1455 30.908L19.1893 30.9518L19.2134 30.908L19.2571 30.8401L19.3031 30.7745L19.3469 30.7066L19.3688 30.6606L19.4147 30.595L19.4585 30.5271L19.4804 30.4812L19.5264 30.4155L19.5482 30.3476L19.5942 30.3017L19.638 30.236L19.6599 30.1682L19.7058 30.1244L19.7496 30.0565L19.7956 29.9887L19.8175 29.9208L19.8634 29.8771L19.8853 29.8092L19.9291 29.7413L19.9751 29.6976L19.9969 29.6297L20.0407 29.5641L20.0867 29.4962L20.1305 29.4502L20.1545 29.3846L20.1983 29.3167L20.2443 29.2708L20.2662 29.2051L20.3099 29.1591L20.334 29.0935L20.3778 29.0256L20.4238 28.9578L20.4675 28.914H21.9253V34.1124H20.5354V31.0415L20.5135 31.0875L20.4675 31.1553L20.4238 31.221L20.3778 31.2669L20.3559 31.3348L20.3099 31.4005L20.2662 31.4464L20.2443 31.5121L20.1983 31.5799L20.1545 31.6259L20.1086 31.6916L20.0867 31.7594L20.0407 31.8054L19.9969 31.871L19.9751 31.9389L19.9291 31.9827L19.8853 32.0505L19.8394 32.1184L19.8175 32.1622L19.7737 32.23L19.7277 32.2979L19.684 32.3416L19.6599 32.4095L19.6161 32.4773L19.5701 32.5211L19.5264 32.589L19.5045 32.6327L19.4585 32.7006L19.4147 32.7685L19.3688 32.8122L19.3469 32.8801L19.3031 32.9479L19.2571 32.9917L19.2134 33.0596L19.1893 33.1274H19.1674L19.1236 33.0596L19.0777 32.9917L19.0339 32.9479L19.0098 32.8801L18.966 32.8122L18.9201 32.7685L18.8763 32.7006L18.8544 32.6327L18.8084 32.5671L18.7647 32.5211L18.7187 32.4555L18.6968 32.3876L18.653 32.3198L18.6071 32.276L18.5633 32.2081L18.5392 32.1403L18.4954 32.0724L18.4495 32.0286L18.4057 31.9608L18.3597 31.8951L18.3378 31.8492L18.2941 31.7813L18.2481 31.7156L18.2043 31.6697L18.1824 31.6018L18.1365 31.5362L18.0927 31.4683L18.0467 31.4223L18.0248 31.3567L17.9789 31.2888L17.9351 31.221L17.8891 31.1772L17.8673 31.1093L17.8235 31.0415V34.1124H16.4555V28.914H17.9351L17.957 28.9578L18.003 29.0256L18.0467 29.0935L18.0686 29.1591L18.1146 29.2051L18.1365 29.2708L18.1824 29.3167L18.2262 29.3846L18.2481 29.4502L18.2941 29.4962L18.3378 29.5641L18.3597 29.6297ZM11.4125 5.98417H15.1772C17.285 5.98417 18.316 7.01509 18.316 9.1229V14.2315C18.316 16.2058 17.3529 17.1908 15.3808 17.1908H14.0128V22.3695H11.4125V5.98417ZM9.61987 33.4185L9.57391 33.4623L9.50824 33.4864L9.46228 33.5302L9.39442 33.5761L9.35065 33.6199L9.2828 33.6418L9.23902 33.6877L9.17117 33.7315L9.10332 33.7534L9.03765 33.7994L8.99169 33.8213L8.92383 33.8672L8.85817 33.8891L8.79032 33.9329L8.72246 33.957L8.6568 33.9789L8.5211 34.0226L8.45324 34.0467L8.38758 34.0686L8.25187 34.1124L8.18621 34.1365L8.11836 34.1583H8.0505L7.98265 34.1802H7.82725L7.75939 34.2021H7.6018L7.53614 34.224H7.22095L7.1531 34.2021H6.99769L6.92984 34.1802H6.86199L6.79632 34.1583H6.70658L6.66062 34.1365H6.57088L6.50522 34.1124L6.36951 34.0686L6.32573 34.0467L6.25788 34.0226L6.19003 34.0007L6.12218 33.957L6.05651 33.9329L5.98866 33.911L5.92081 33.8672L5.87703 33.8213L5.80918 33.7994L5.74133 33.7534L5.69755 33.7315L5.6297 33.6877L5.58592 33.6418L5.51807 33.598L5.42833 33.5083L5.36048 33.4623L5.27073 33.3726L5.22696 33.3069L5.13722 33.2172L5.09125 33.1493L5.04748 33.1033L5.00151 33.0377L4.97962 32.9917L4.93585 32.926L4.91177 32.8582L4.868 32.8122L4.84611 32.7466L4.80014 32.6787L4.75637 32.543L4.73448 32.4992L4.7104 32.4314L4.68852 32.3657L4.66663 32.2979V32.23L4.64474 32.1622L4.62066 32.0965V32.0286L4.59877 31.9608V31.8951L4.57689 31.8273V31.221L4.59877 31.1312V31.0656L4.62066 30.9977V30.9299L4.64474 30.862L4.66663 30.7963L4.7104 30.6606L4.73448 30.595L4.80014 30.3914L4.84611 30.3258L4.868 30.2579L4.91177 30.1901L4.93585 30.1463L4.97962 30.0784L5.00151 30.0346L5.04748 29.9668L5.09125 29.8989L5.13722 29.8552L5.18099 29.7873L5.27073 29.6976L5.3167 29.6538L5.36048 29.5859L5.45022 29.4962L5.51807 29.4502L5.56184 29.4065L5.6297 29.3605L5.67566 29.3386L5.74133 29.2948L5.78729 29.2489L5.85514 29.2051L5.92081 29.181L5.98866 29.1372L6.03244 29.1154L6.10029 29.0694L6.23599 29.0256L6.30166 28.9796H6.36951L6.43736 28.9359H6.50522L6.57088 28.914L6.63873 28.8899L6.70658 28.868L6.77225 28.8461H6.90795L6.99769 28.8242H7.13121L7.19906 28.8002H7.51206L7.57991 28.8242H7.80317L7.89291 28.8461H7.93888L8.02862 28.868H8.09647L8.16213 28.8899L8.2081 28.914H8.27376L8.47732 28.9796L8.54298 29.0037L8.58895 29.0256L8.6568 29.0475L8.72246 29.0935L8.79032 29.1154L8.85817 29.1591L8.90195 29.181L8.9698 29.227L9.03765 29.2489L9.10332 29.2948L9.14928 29.3386L9.21713 29.3605L9.26091 29.4065L9.32876 29.4502L9.37254 29.5181L9.44039 29.54L9.39442 29.6078L9.35065 29.6538L9.30687 29.7195L9.26091 29.7654L9.21713 29.8311L9.17117 29.8771L9.12739 29.9449L9.08143 29.9887L9.03765 30.0346L8.99169 30.1003L8.94791 30.1682L8.88006 30.2141L8.83409 30.2579L8.81221 30.3258L8.6568 30.4812L8.61084 30.549L8.56706 30.5052L8.49921 30.4593L8.45324 30.4155L8.38758 30.3695L8.34161 30.3476L8.27376 30.3017L8.2081 30.2579L8.16213 30.236L8.09647 30.2141L8.0505 30.1682L7.98265 30.1463L7.91699 30.1244L7.84914 30.1003H7.78128L7.71343 30.0784L7.64777 30.0565H7.49017L7.42232 30.0346H7.26692L7.19906 30.0565H7.13121L7.06555 30.0784H6.99769L6.92984 30.1003L6.86199 30.1244L6.81821 30.1682L6.75036 30.1901L6.68251 30.2141L6.63873 30.2579L6.57088 30.3017L6.48114 30.3914L6.41547 30.4155L6.36951 30.4812L6.32573 30.5271L6.27977 30.5709L6.25788 30.6388L6.21192 30.6847L6.19003 30.7504L6.14625 30.8182L6.12218 30.8861L6.10029 30.9299L6.05651 30.9977L6.03244 31.0875V31.1553L6.01055 31.221V31.2888L5.98866 31.3567V31.6697L6.01055 31.7375V31.8054L6.03244 31.871V31.9389L6.05651 32.0068L6.0784 32.0724L6.10029 32.1184L6.14625 32.2519L6.19003 32.3198L6.21192 32.3876L6.25788 32.4314L6.30166 32.4992L6.48114 32.6787L6.54899 32.7225L6.59277 32.7685L6.66062 32.8122L6.70658 32.8363L6.77225 32.8801L6.8401 32.902L6.90795 32.926L6.97581 32.9479L7.04147 32.9698L7.13121 32.9917H7.19906L7.26692 33.0158H7.57991L7.66965 32.9917H7.73751L7.80317 32.9698H7.87102L8.00673 32.926L8.07239 32.902L8.14025 32.8801L8.2081 32.8363L8.25187 32.8122L8.29784 32.7903V32.1184H7.26692V31.0875H9.61987V33.4185ZM9.68772 8.56257H7.08743V12.8876H9.68772V15.466H7.08743V19.7911H9.68772V22.3695H4.50903V5.98417H9.68772V8.56257ZM11.6598 33.9329L11.6358 34.0007L11.6139 34.0467L11.5701 34.1124H10.1342L10.1802 34.0467L10.2021 34.0007L10.224 33.9329L10.2481 33.8432L10.2699 33.7994L10.3137 33.7315L10.3378 33.6637L10.3597 33.598L10.4035 33.5302L10.4275 33.4623L10.4494 33.3966L10.4932 33.2609L10.5392 33.1931V33.1493L10.5611 33.0815L10.6048 33.0158L10.6289 32.9479L10.6508 32.8801L10.6946 32.8363L10.7186 32.7685L10.7624 32.6327L10.8084 32.5671L10.8522 32.4314L10.8981 32.3657L10.9638 32.1622L10.9879 32.0965L11.0316 32.0286L11.0535 31.9827L11.0754 31.8951L11.0995 31.8273L11.1433 31.7813L11.1652 31.7156L11.1892 31.6478L11.2111 31.5799L11.2549 31.5121L11.279 31.4464L11.3228 31.3107L11.3687 31.2451L11.4344 31.0415L11.4585 30.9758L11.5022 30.9299L11.5241 30.862L11.5482 30.7963L11.592 30.7285L11.6139 30.6606L11.6358 30.595L11.6598 30.5271L11.6817 30.4593L11.7255 30.3914L11.7496 30.3258L11.7933 30.1901L11.8152 30.1244L11.8612 30.0565L11.8831 30.0106L11.905 29.9449L11.9509 29.8552L11.9728 29.8092L11.9947 29.7413L12.0188 29.6757L12.0407 29.6078L12.0845 29.54L12.1085 29.4743L12.1523 29.3386L12.1961 29.2708L12.2202 29.2051L12.242 29.1591L12.2639 29.0694L12.3099 29.0037L12.3318 28.9578L12.3537 28.8899H13.6757L13.7217 28.9578L13.7436 29.0037L13.7654 29.0694L13.7895 29.1591L13.8114 29.2051L13.8333 29.2708L13.8552 29.3386L13.9012 29.4065L13.923 29.4502L13.9449 29.54L13.9909 29.5859L14.0128 29.6538L14.0347 29.7195L14.0566 29.7873L14.0806 29.8552L14.1244 29.9208L14.1463 29.9887L14.1704 30.0565L14.1923 30.1244L14.236 30.1901L14.2601 30.2579L14.282 30.3258L14.3039 30.3914L14.3499 30.4593L14.3717 30.5052L14.3936 30.5709L14.4155 30.6388L14.4615 30.7066L14.4834 30.7745L14.5053 30.8401L14.5271 30.908L14.5512 30.9758L14.595 31.0415L14.6169 31.1093L14.641 31.1772L14.6847 31.2451L14.7066 31.3107L14.7307 31.3786L14.7526 31.4223L14.7964 31.558L14.8204 31.6259L14.8642 31.6916L14.8861 31.7594L14.9102 31.8054L14.9321 31.871L14.9759 31.9608L14.9977 32.0068L15.0218 32.0724L15.0437 32.1403L15.0875 32.2081L15.1116 32.276L15.1334 32.3416L15.1772 32.4773L15.2232 32.543L15.267 32.6787L15.3129 32.7466L15.3348 32.8122L15.3567 32.8801L15.3808 32.926L15.4027 32.9917L15.4464 33.0596L15.4705 33.1274L15.4924 33.1931L15.5143 33.2609L15.5581 33.3288L15.5821 33.3966L15.604 33.4623L15.6259 33.5302L15.6719 33.598L15.6938 33.6637L15.7376 33.7994L15.7835 33.8432L15.8054 33.9329L15.8273 34.0007L15.8514 34.0467L15.8733 34.1124H14.4155L14.3717 34.0467L14.3499 34.0007L14.3258 33.9329L14.3039 33.8432L14.282 33.7994L14.2601 33.7315L14.2142 33.6637L14.1923 33.598L14.1704 33.5302L14.1463 33.4623L14.1244 33.3966L14.1025 33.3288L14.0566 33.2609L14.0347 33.1931L14.0128 33.1274H11.9728L11.9509 33.1931L11.929 33.2609L11.8831 33.3288L11.8612 33.3966L11.8393 33.4623L11.8152 33.5302L11.7933 33.598L11.7715 33.6637L11.7255 33.7315L11.7036 33.7994L11.6817 33.8432L11.6598 33.9329ZM24.8167 39.5822L18.2262 42.4736H18.1146L11.7933 39.5822C11.6358 39.5143 11.6817 39.2911 11.8393 39.2911H24.7488C24.9283 39.2911 24.9721 39.5143 24.8167 39.5822ZM27.1237 34.1124H22.9781V28.914H27.1018V30.0784H24.322V30.9299H26.8107V32.0505H24.322V32.9479H27.1237V34.1124ZM32.055 32.7685L32.0331 32.8363V32.902L32.0112 32.9698L31.9872 33.0377L31.9653 33.1274L31.9434 33.1712L31.9215 33.239L31.8755 33.3069L31.8537 33.3507L31.8077 33.4185L31.7639 33.4864L31.742 33.5302L31.6961 33.5761L31.6523 33.6418L31.6063 33.6637L31.5407 33.7315L31.4947 33.7775L31.4268 33.8213L31.3831 33.8432L31.3152 33.8891L31.2474 33.9329L31.2036 33.957L31.1357 34.0007L31.046 34.0226L30.9803 34.0467L30.7768 34.1124L30.7111 34.1365H30.6432L30.5754 34.1583H30.5097L30.4419 34.1802H30.3062L30.2164 34.2021H29.7021L29.6342 34.1802H29.4788L29.411 34.1583H29.3431L29.2753 34.1365H29.1855L29.1198 34.1124L28.9841 34.0686H28.9185L28.8506 34.0467L28.7828 34.0226L28.7149 34.0007L28.6493 33.9789L28.5814 33.957L28.5136 33.911L28.4457 33.8891L28.38 33.8672L28.3122 33.8213L28.2443 33.7994L28.1787 33.7534L28.1327 33.7315L28.0648 33.6877L27.9992 33.6418L27.9532 33.6199L27.8854 33.5761L27.8416 33.5302L27.7737 33.4864L27.73 33.4404L27.6621 33.3966L27.6183 33.3507L27.6621 33.3069L27.7081 33.239L27.7519 33.1931L27.7978 33.1274L27.8416 33.0815L27.8854 33.0158L27.9751 32.926L28.0211 32.8582L28.0648 32.8122L28.1108 32.7466L28.1546 32.7006L28.2006 32.6327L28.2443 32.589L28.2903 32.5211L28.3581 32.4773L28.38 32.4314L28.4457 32.4555L28.5136 32.4992L28.5595 32.543L28.6252 32.589L28.693 32.6327L28.7609 32.6787L28.8047 32.7006L28.8725 32.7466L28.9404 32.7685L29.006 32.8122L29.052 32.8363L29.1198 32.8582L29.1855 32.8801L29.2534 32.902L29.3212 32.926L29.3891 32.9479L29.4547 32.9698L29.5226 32.9917H29.6123L29.6802 33.0158H29.7458L29.8137 33.0377H30.2164L30.2843 33.0158H30.3521L30.42 32.9917L30.4638 32.9698L30.5097 32.9479L30.5754 32.902L30.6214 32.8582L30.6651 32.7225V32.5671L30.6432 32.4773L30.5535 32.3876L30.4857 32.3416L30.4419 32.3198L30.3062 32.276L30.2164 32.23L30.1727 32.2081H30.1048L30.0391 32.1862L29.9713 32.1622L29.8356 32.1184L29.7699 32.0965H29.6802L29.6123 32.0724L29.5445 32.0505L29.4788 32.0286H29.3891L29.3212 32.0068L29.2534 31.9827L29.1855 31.9608L29.1198 31.9389L29.052 31.917L29.006 31.8951L28.9185 31.871L28.8506 31.8492L28.7828 31.8054L28.7149 31.7813L28.6493 31.7594L28.5595 31.7156L28.5136 31.6697L28.4457 31.6478L28.38 31.6018L28.2443 31.4683L28.1787 31.4223L28.1327 31.3786L28.0889 31.3107L28.0648 31.2669L28.0211 31.221L27.9992 31.1553L27.9532 31.0875L27.9313 31.0415V30.9758L27.9094 30.908L27.8854 30.8401L27.8635 30.7745V30.6388L27.8416 30.5709V30.3914L27.8635 30.3258V30.1901L27.8854 30.1244L27.9094 30.0565L27.9313 29.9887V29.9208L27.9532 29.8771L27.9992 29.8092L28.0211 29.7413L28.0648 29.6757L28.0889 29.6078L28.1327 29.54L28.1787 29.4962L28.2224 29.4284L28.2684 29.3846L28.3341 29.3386L28.38 29.2708L28.4238 29.2489L28.4917 29.2051L28.5354 29.1591L28.6033 29.1154L28.6711 29.0935L28.739 29.0475L28.8047 29.0256L28.8725 28.9796H28.9404L29.006 28.9359L29.0739 28.914H29.1198L29.1855 28.8899L29.2534 28.868H29.3212L29.3891 28.8461H29.5226L29.6123 28.8242H30.061L30.1267 28.8461H30.3521L30.4419 28.868H30.5097L30.5754 28.8899L30.6432 28.914H30.7111L30.7768 28.9359L30.9125 28.9796H30.9803L31.046 29.0256L31.1817 29.0694L31.2474 29.0935L31.3152 29.1372L31.3831 29.1591L31.4268 29.181L31.4947 29.227L31.5625 29.2708L31.6304 29.2948L31.6742 29.3386L31.742 29.3846L31.8077 29.4284L31.8537 29.4743L31.9215 29.5181L31.8755 29.5641L31.8318 29.6297L31.7858 29.6757L31.742 29.7413L31.6961 29.8092L31.6742 29.8552L31.6304 29.9208L31.5844 29.9668L31.5407 30.0346L31.5166 30.0784L31.4728 30.1463L31.4268 30.2141L31.3831 30.2579L31.3371 30.3258L31.2933 30.3914L31.2714 30.4374L31.2255 30.5052L31.1598 30.4593L31.092 30.4155L31.046 30.3914L30.9803 30.3476L30.9125 30.3017L30.8665 30.2798L30.8008 30.236L30.7549 30.2141L30.687 30.1901L30.6214 30.1682L30.5535 30.1463L30.5097 30.1003L30.42 30.0784L30.2843 30.0346H30.2164L30.1267 30.0106H30.061L29.9932 29.9887H29.6342L29.5445 30.0106L29.5007 30.0346L29.4328 30.0565L29.3891 30.0784L29.3212 30.1463L29.2753 30.2141L29.2534 30.2579L29.2315 30.3476L29.2753 30.5271L29.3212 30.5709L29.365 30.6169L29.4328 30.6606L29.4788 30.6847L29.5445 30.7285L29.6342 30.7504L29.724 30.7745L29.7699 30.7963L29.8356 30.8182H29.9034L29.9494 30.8401L30.0391 30.862L30.1048 30.8861L30.1945 30.908L30.2624 30.9299H30.3521L30.42 30.9518L30.4857 30.9758L30.5754 30.9977L30.7111 31.0415L30.7768 31.0656L30.9803 31.1312L31.046 31.1553L31.1138 31.1991L31.2036 31.221L31.2714 31.2451L31.3371 31.2888L31.3831 31.3348L31.4509 31.3567L31.5166 31.4005L31.5625 31.4464L31.6304 31.4902L31.6742 31.5362L31.7201 31.6018L31.7858 31.6478L31.8318 31.7156L31.8537 31.7594L31.8974 31.8273L31.9434 31.8951L31.9653 31.9389L31.9872 32.0068L32.0112 32.0724V32.1403L32.055 32.276V32.7685ZM32.1229 12.0143H29.5445V9.4359C29.5445 8.94342 29.1417 8.56257 28.6711 8.56257H27.8197C27.325 8.56257 26.9442 8.94342 26.9442 9.4359V18.7602C26.9442 19.454 27.2813 19.7911 27.9992 19.7911H28.5136C29.2096 19.7911 29.5445 19.454 29.5445 18.7602V16.3394H32.1229V19.3205C32.1229 21.3605 31.0701 22.3695 28.9185 22.3695H27.5943C25.4208 22.3695 24.368 21.3364 24.368 19.2308V9.1229C24.368 7.01509 25.4208 5.98417 27.5943 5.98417H28.8944C31.0701 5.98417 32.1229 6.9932 32.1229 9.09882V12.0143ZM15.7157 13.7391V9.4359C15.7157 8.94342 15.3348 8.56257 14.8642 8.56257H13.9909V14.6124H14.8642C15.3348 14.6124 15.7157 14.2315 15.7157 13.7391ZM13.61 32.0286L13.586 31.9608L13.5641 31.8951L13.5203 31.8273L13.4962 31.7594L13.4743 31.7156L13.4525 31.6478L13.4306 31.558L13.4065 31.5121L13.3627 31.4464L13.3408 31.3786L13.3167 31.3107L13.2949 31.2451L13.2511 31.1093L13.2051 31.0415L13.1832 30.9758L13.1395 30.8401L13.1154 30.7745L13.0935 30.7066L13.0497 30.6388L13.0256 30.5709L13.0037 30.5052L12.9819 30.5709L12.96 30.6388L12.9359 30.7066L12.8921 30.7745L12.8702 30.8401L12.8462 30.908L12.8243 30.9758L12.7805 31.0415V31.1093L12.7345 31.1772L12.7126 31.2451L12.6908 31.3107L12.6689 31.3786L12.6448 31.4464L12.6229 31.5121L12.5791 31.558L12.555 31.6478L12.5332 31.7156L12.5113 31.7594L12.4894 31.8273L12.4434 31.917L12.4215 31.9608L12.3996 32.0286H13.61Z" fill="white"/>
</svg>
