<svg width="48" height="47" viewBox="0 0 48 47" fill="none" xmlns="http://www.w3.org/2000/svg">
<path d="M24 0C11.0407 0 0.5 10.5427 0.5 23.5C0.5 36.4573 11.0407 47 24 47C36.9593 47 47.5 36.4573 47.5 23.5C47.5 10.5427 36.9593 0 24 0ZM10.3083 11.2391H16.2352C17.1372 11.2391 17.8696 11.9695 17.8696 12.8735V22.8874C17.8696 23.7914 17.1392 24.5217 16.2352 24.5217H8.67391V22.4783H15.2134C15.5507 22.4783 15.8261 22.2029 15.8261 21.8656V13.8953C15.8261 13.558 15.5507 13.2826 15.2134 13.2826H11.33C10.9928 13.2826 10.7174 13.558 10.7174 13.8953V17.7787C10.7174 18.1159 10.9928 18.3913 11.33 18.3913H14.2935V20.4348H10.3083C9.40629 20.4348 8.67391 19.7044 8.67391 18.8004V12.8735C8.67391 11.9695 9.4043 11.2391 10.3083 11.2391ZM21.0366 11.2391H26.9634C27.8654 11.2391 28.5978 11.9715 28.5978 12.8735V18.8004C28.5978 19.7024 27.8654 20.4348 26.9634 20.4348H21.0366C20.1346 20.4348 19.4022 19.7024 19.4022 18.8004V12.8735C19.4022 11.9715 20.1346 11.2391 21.0366 11.2391ZM31.7648 11.2391H37.6917C38.5937 11.2391 39.3261 11.9695 39.3261 12.8735V22.8874C39.3261 23.7914 38.5957 24.5217 37.6917 24.5217H30.1304V22.4783H36.67C37.0072 22.4783 37.2826 22.2029 37.2826 21.8656V13.8953C37.2826 13.558 37.0072 13.2826 36.67 13.2826H32.7866C32.4493 13.2826 32.1739 13.558 32.1739 13.8953V17.7787C32.1739 18.1159 32.4493 18.3913 32.7866 18.3913H35.75V20.4348H31.7648C30.8628 20.4348 30.1304 19.7044 30.1304 18.8004V12.8735C30.1304 11.9695 30.8608 11.2391 31.7648 11.2391ZM22.0583 13.2826C21.721 13.2826 21.4457 13.558 21.4457 13.8953V17.7787C21.4457 18.1159 21.721 18.3913 22.0583 18.3913H25.9417C26.279 18.3913 26.5543 18.1159 26.5543 17.7787V13.8953C26.5543 13.558 26.279 13.2826 25.9417 13.2826H22.0583ZM10.3083 26.5652H16.337V28.6087H11.33C10.9928 28.6087 10.7174 28.8841 10.7174 29.2213V33.1047C10.7174 33.442 10.9928 33.7174 11.33 33.7174H16.337V35.7609H10.3083C9.40629 35.7609 8.67391 35.0305 8.67391 34.1265V28.1996C8.67391 27.2976 9.4043 26.5652 10.3083 26.5652ZM19.5039 26.5652H25.4308C26.3328 26.5652 27.0652 27.2976 27.0652 28.1996V34.1265C27.0652 35.0285 26.3328 35.7609 25.4308 35.7609H19.5039C18.6019 35.7609 17.8696 35.0285 17.8696 34.1265V28.1996C17.8696 27.2976 18.6019 26.5652 19.5039 26.5652ZM30.2322 26.5652H39.3261V35.7609H37.2826V28.6087H35.5963C35.2591 28.6087 34.9837 28.8841 34.9837 29.2213V35.7609H32.9402V28.6087H31.2539C30.9167 28.6087 30.6413 28.8841 30.6413 29.2213V35.7609H28.5978V28.1996C28.5978 27.2976 29.3282 26.5652 30.2322 26.5652ZM20.5257 28.6087C20.1884 28.6087 19.913 28.8841 19.913 29.2213V33.1047C19.913 33.442 20.1884 33.7174 20.5257 33.7174H24.4091C24.7463 33.7174 25.0217 33.442 25.0217 33.1047V29.2213C25.0217 28.8841 24.7463 28.6087 24.4091 28.6087H20.5257Z" fill="white"/>
</svg>
