<svg width="48" height="38" viewBox="0 0 48 38" fill="none" xmlns="http://www.w3.org/2000/svg">
<path d="M24.2825 17.1879L32.1194 21.1766C32.3973 21.3493 32.6365 21.5775 32.8221 21.8468C33.1153 22.2328 33.3654 22.6496 33.5679 23.0899C34.1311 24.6735 34.3844 26.3507 34.3138 28.0299C34.3138 31.2656 33.2112 33.6762 31.0061 35.2616C28.8441 36.8398 25.6012 37.6397 21.3963 37.6397C16.8274 37.6397 13.3287 36.7533 10.9002 34.9805C8.32748 33.0564 6.98708 29.673 6.98708 24.8627C6.91263 23.2496 7.17179 21.6384 7.74838 20.13C8.32497 18.6216 9.20657 17.2483 10.3381 16.0961C10.9761 15.4533 11.6627 14.8606 12.3919 14.3233C13.1182 13.812 13.8845 13.3602 14.6835 12.9721C15.8942 12.3776 16.9536 11.8912 17.9264 11.5561C18.8993 11.221 19.3533 11.0048 19.4398 10.9724C23.5114 9.35092 26.1381 7.49527 27.32 5.40541C27.7022 4.74791 27.9105 4.00386 27.9253 3.24349C27.9473 2.93083 27.9049 2.61699 27.8008 2.32137C27.6967 2.02574 27.533 1.75462 27.32 1.52476C26.9092 1.13561 26.8552 0.908609 27.1254 0.843752C27.4344 0.905865 27.7261 1.0348 27.9801 1.22153C28.234 1.40826 28.4441 1.64826 28.5955 1.92471C28.9733 2.44249 29.1946 3.05773 29.2333 3.69749C29.2333 4.21635 29.2333 4.65955 29.2333 5.02707C29.1903 5.46311 29.1217 5.89624 29.0279 6.32423C28.9153 6.85379 28.7524 7.3714 28.5415 7.87C28.3145 8.37806 28.0334 8.95097 27.6983 9.56711C26.6948 11.198 25.5009 12.7039 24.1419 14.0531C23.0995 15.1107 22.1213 16.2297 21.2125 17.4041L19.9586 19.1661L19.0182 20.7551L18.4669 22.29L18.1858 23.8358L18.4129 25.1438C18.6376 25.6587 18.9714 26.1187 19.3914 26.492C19.8113 26.8653 20.3073 27.1429 20.845 27.3057C20.4176 26.9072 20.0947 26.4098 19.9046 25.8572C19.6165 25.0831 19.4771 24.2616 19.4938 23.4359C19.4938 22.5062 20.1316 21.2739 21.4287 19.8254C22.1992 18.7688 23.1686 17.8729 24.2825 17.1879ZM21.7206 3.13539C21.7493 3.89117 21.934 4.63284 22.2633 5.31373C22.5926 5.99461 23.0592 6.59997 23.6339 7.09171L21.3531 8.34563C20.7177 6.90959 20.397 5.3542 20.4126 3.78397C20.3582 3.15709 20.5224 2.5307 20.8774 2.01119C21.2047 1.54437 21.6287 1.15356 22.1206 0.865371C22.4773 0.692417 22.6502 0.692417 22.6502 0.865371C22.6403 0.964701 22.6103 1.06097 22.562 1.14832C22.5137 1.23567 22.4481 1.31226 22.3692 1.37342C21.9393 1.87125 21.7084 2.51022 21.7206 3.16782V3.13539ZM20.0883 9.09149L15.7645 10.7778L1.29041 3.24349C1.05952 3.1204 0.86506 2.93875 0.726555 2.71676C0.588049 2.49477 0.51037 2.24026 0.501311 1.97876C0.48794 1.5601 0.576996 1.14451 0.760742 0.768084C0.845418 0.606755 0.961848 0.464218 1.10303 0.349044C1.24421 0.23387 1.40723 0.148439 1.58227 0.097888C2.00112 -0.0326293 2.44977 -0.0326293 2.86862 0.097888L20.0883 9.09149ZM27.32 12.8749L46.907 22.9927C47.2187 23.2659 47.4226 23.6414 47.482 24.0516C47.5415 24.4618 47.4525 24.8798 47.2313 25.2303C47.0966 25.5567 46.8465 25.8222 46.5287 25.9761C46.1624 26.1389 45.7598 26.2023 45.3612 26.1599L25.0824 15.6205L27.32 12.8749Z" fill="white"/>
</svg>
