<svg width="47" height="40" viewBox="0 0 47 40" fill="none" xmlns="http://www.w3.org/2000/svg">
<path d="M18.1537 0.76001C17.871 0.76001 17.5846 0.748994 17.3019 0.93626C17.0191 1.12353 16.92 1.41728 16.92 1.70001V36.0981C16.92 36.4727 17.1917 36.8509 17.5662 37.0381L25.0863 39.3H25.38C25.5673 39.3 25.7509 39.2192 25.9381 39.1238C26.2209 38.9365 26.32 38.6427 26.32 38.36V9.60188C26.8855 9.88462 27.26 10.4427 27.26 11.1V21.5281C27.26 21.8109 27.4473 22.1964 27.73 22.2919C27.9173 22.3874 29.3273 23.2319 31.96 23.2319C34.4973 23.2319 37.6 21.8292 37.6 15.1538C37.6 9.79649 34.6037 5.7354 29.4338 4.13813L18.1537 0.76001ZM15.98 21.8219L5.55188 25.5819L4.05375 26.14C1.51648 27.1755 0 28.8535 0 30.5463C0 34.119 2.53727 36.1863 7.05 36.1863C9.49547 36.1863 12.5027 35.6465 15.98 34.4238V30.84C15.1355 31.1227 14.2065 31.4973 13.4537 31.78C11.9483 32.3455 10.81 32.5438 9.87 32.5438C8.46 32.5438 7.80273 32.0627 7.52 31.78C7.14547 31.4973 6.95453 31.1338 7.05 30.6638C7.14547 29.7238 8.27273 28.8609 10.34 28.1081C10.81 27.9209 14.0045 26.7973 15.98 26.14V21.8219ZM34.31 24.1719C32.0555 24.2674 29.7055 24.6309 27.26 25.2881V29.6063C28.2955 29.2317 29.6908 28.7727 31.6663 28.02C36.179 26.4227 38.0627 26.599 38.6281 26.7863C39.7554 26.8817 40.2327 27.55 40.42 28.02C40.89 29.43 39.1165 30.0763 36.4837 31.0163C35.261 31.4863 29.9845 33.3663 27.26 34.3063V38.6538L41.83 33.4838L42.9463 33.0138C44.8262 32.3565 47.1873 31.1227 47 28.96C46.9045 26.8927 44.3783 25.8536 42.5938 25.2881C39.961 24.4436 37.13 24.0764 34.31 24.1719Z" fill="white"/>
</svg>
