<svg width="48" height="47" viewBox="0 0 48 47" fill="none" xmlns="http://www.w3.org/2000/svg">
<path d="M23.8832 0C11.695 0 1.67458 9.27357 0.5 21.1508L12.4545 27.2699C13.6624 26.256 15.2313 25.6364 16.94 25.6364H16.9942C17.4115 24.9959 17.8892 24.1927 18.392 23.3602C19.4394 21.6411 20.6139 19.6967 21.7677 18.2008C22.0243 13.4253 25.9882 9.61364 30.8263 9.61364C35.8355 9.61364 39.9059 13.684 39.9059 18.6932C39.9059 23.5313 36.0942 27.4953 31.3187 27.7519C29.8228 28.9056 27.8888 30.0802 26.1593 31.1171C25.3269 31.6303 24.5237 32.108 23.8832 32.5253V32.5795C23.8832 36.4142 20.7746 39.5227 16.94 39.5227C13.1054 39.5227 9.9968 36.4142 9.9968 32.5795C9.9968 32.398 10.0072 32.227 10.0177 32.0455L0.681508 27.2595C2.48615 38.4545 12.1874 47 23.8832 47C36.862 47 47.3832 36.4788 47.3832 23.5C47.3832 10.5212 36.862 0 23.8832 0ZM30.8263 11.75C27.0022 11.75 23.8832 14.869 23.8832 18.6932C23.8832 22.5174 27.0022 25.6364 30.8263 25.6364C34.6505 25.6364 37.7695 22.5174 37.7695 18.6932C37.7695 14.869 34.6505 11.75 30.8263 11.75ZM30.8263 13.8864C33.4864 13.8864 35.6332 16.0332 35.6332 18.6932C35.6332 21.3532 33.4864 23.5 30.8263 23.5C28.1663 23.5 26.0195 21.3532 26.0195 18.6932C26.0195 16.0332 28.1663 13.8864 30.8263 13.8864ZM16.94 27.7727C16.0971 27.7727 15.296 27.9876 14.6117 28.3819L18.1584 30.197C19.4727 30.8709 19.9839 32.4836 19.3225 33.7979C18.8427 34.7159 17.9122 35.25 16.94 35.25C16.5227 35.25 16.1159 35.154 15.7216 34.9621L12.1645 33.1345C12.4419 35.5275 14.4719 37.3864 16.94 37.3864C19.6 37.3864 21.7468 35.2396 21.7468 32.5795C21.7468 29.9195 19.6 27.7727 16.94 27.7727Z" fill="white"/>
</svg>
