<svg width="44" height="45" viewBox="0 0 44 45" fill="none" xmlns="http://www.w3.org/2000/svg">
<path d="M22 0.880005C17.9664 0.880005 14.122 2.00911 10.933 3.98274C10.7273 4.05067 10.3712 4.32239 10.048 4.60879C12.9103 2.33407 19.5288 6.88903 21.4621 8.24579C21.787 8.47344 22.2148 8.47344 22.5398 8.24579C24.473 6.88903 31.0916 2.33407 33.9538 4.60879C33.6307 4.32239 33.2745 4.05067 33.0689 3.98274C29.8798 2.00911 26.0336 0.880005 22 0.880005ZM8.84 6.52001C7.3382 6.52001 6.24215 7.74274 6.24215 7.74274C2.67676 11.5964 0.427734 16.7664 0.427734 22.5C0.427734 34.4373 10.0884 44.12 22 44.12C28.2844 44.12 34.0052 41.3936 37.9451 37.07C37.9451 37.07 37.477 34.25 34.5688 30.1136C31.3174 25.2099 24.73 19.0338 22.6224 17.1372C22.2625 16.8141 21.7264 16.8159 21.3684 17.1427C19.7804 18.5968 15.6807 22.6671 14.7774 23.7227C12.6202 25.9791 6.61668 33.1209 6.24215 37.1636C6.24215 37.1636 4.92762 33.9691 7.83574 26.6364C9.64598 22.232 15.2658 15.6832 17.9903 12.8265C18.352 12.4482 18.3428 11.8497 17.9609 11.4899C17.0577 10.6454 14.9555 9.16376 13.059 8.02364C11.7463 7.17727 10.2463 6.61364 8.84 6.52001ZM34.8681 6.52001C34.2549 6.52001 30.2672 7.78313 26.0703 11.5009C25.6737 11.8516 25.6572 12.4666 26.0262 12.8466C27.5464 14.4182 31.7029 18.4407 34.1943 22.4064C37.2897 27.4827 39.1642 31.5236 38.0388 37.07C41.5087 33.2164 43.6677 28.14 43.6677 22.5C43.5741 16.86 41.4169 11.69 37.8515 7.83637C37.7579 7.74274 37.6642 7.64727 37.5706 7.55364C36.8197 6.70727 35.7126 6.52001 34.8681 6.52001Z" fill="white"/>
</svg>
